<svg width="25" height="25" viewBox="0 0 25 25" fill="none" xmlns="http://www.w3.org/2000/svg">
<path d="M16.6139 9.71937C16.6837 9.78903 16.739 9.87175 16.7767 9.96279C16.8145 10.0538 16.8339 10.1514 16.8339 10.25C16.8339 10.3486 16.8145 10.4462 16.7767 10.5372C16.739 10.6283 16.6837 10.711 16.6139 10.7806L11.3639 16.0306C11.2943 16.1004 11.2116 16.1557 11.1205 16.1934C11.0295 16.2312 10.9319 16.2506 10.8333 16.2506C10.7348 16.2506 10.6372 16.2312 10.5461 16.1934C10.4551 16.1557 10.3723 16.1004 10.3027 16.0306L8.05269 13.7806C7.91196 13.6399 7.8329 13.449 7.8329 13.25C7.8329 13.051 7.91196 12.8601 8.05269 12.7194C8.19342 12.5786 8.38429 12.4996 8.58332 12.4996C8.78234 12.4996 8.97321 12.5786 9.11394 12.7194L10.8333 14.4397L15.5527 9.71937C15.6223 9.64964 15.7051 9.59432 15.7961 9.55658C15.8872 9.51884 15.9848 9.49941 16.0833 9.49941C16.1819 9.49941 16.2795 9.51884 16.3705 9.55658C16.4616 9.59432 16.5443 9.64964 16.6139 9.71937ZM22.0833 12.5C22.0833 14.4284 21.5115 16.3134 20.4401 17.9168C19.3688 19.5202 17.8461 20.7699 16.0645 21.5078C14.2829 22.2458 12.3225 22.4389 10.4312 22.0627C8.53987 21.6865 6.80259 20.7579 5.43903 19.3943C4.07546 18.0307 3.14687 16.2934 2.77066 14.4021C2.39445 12.5108 2.58754 10.5504 3.32549 8.76884C4.06345 6.98726 5.31313 5.46452 6.91651 4.39317C8.51989 3.32183 10.4049 2.75 12.3333 2.75C14.9183 2.75273 17.3967 3.78084 19.2246 5.60872C21.0525 7.43661 22.0806 9.91498 22.0833 12.5ZM20.5833 12.5C20.5833 10.8683 20.0995 9.27325 19.1929 7.91655C18.2864 6.55984 16.9979 5.50242 15.4905 4.87799C13.983 4.25357 12.3242 4.09019 10.7238 4.40852C9.12348 4.72685 7.65347 5.51259 6.49969 6.66637C5.3459 7.82015 4.56017 9.29016 4.24184 10.8905C3.92351 12.4908 4.08689 14.1496 4.71131 15.6571C5.33573 17.1646 6.39316 18.4531 7.74986 19.3596C9.10657 20.2661 10.7016 20.75 12.3333 20.75C14.5206 20.7475 16.6176 19.8775 18.1642 18.3309C19.7108 16.7843 20.5808 14.6873 20.5833 12.5Z" fill="#00ADB5"/>
</svg>
