<svg width="33" height="33" viewBox="0 0 33 33" fill="none" xmlns="http://www.w3.org/2000/svg">
<path d="M16.3333 2.5C13.1518 2.50364 10.1017 3.76909 7.85205 6.01874C5.6024 8.26839 4.33695 11.3185 4.33331 14.5C4.33331 17.5 5.90331 21.3825 8.53456 24.875C11.1821 28.3937 14.0971 30.5 16.3333 30.5C18.5696 30.5 21.4846 28.3988 24.1321 24.875C26.7633 21.375 28.3333 17.5 28.3333 14.5C28.3297 11.3185 27.0642 8.26839 24.8146 6.01874C22.5649 3.76909 19.5148 2.50364 16.3333 2.5ZM22.5346 23.6775C20.3633 26.5612 17.8721 28.5 16.3333 28.5C14.7946 28.5 12.3033 26.5612 10.1321 23.6775C7.78956 20.5625 6.33331 17.0463 6.33331 14.5C6.33331 11.8478 7.38688 9.3043 9.26225 7.42893C11.1376 5.55357 13.6811 4.5 16.3333 4.5C18.9855 4.5 21.529 5.55357 23.4044 7.42893C25.2797 9.3043 26.3333 11.8478 26.3333 14.5C26.3333 17.0463 24.8771 20.5625 22.5346 23.6775ZM15.3333 17.5C15.3333 16.1739 14.8065 14.9021 13.8688 13.9645C12.9312 13.0268 11.6594 12.5 10.3333 12.5C9.80288 12.5 9.29417 12.7107 8.9191 13.0858C8.54403 13.4609 8.33331 13.9696 8.33331 14.5C8.33331 15.8261 8.8601 17.0979 9.79778 18.0355C10.7355 18.9732 12.0072 19.5 13.3333 19.5C13.8637 19.5 14.3725 19.2893 14.7475 18.9142C15.1226 18.5391 15.3333 18.0304 15.3333 17.5ZM10.3333 14.5C11.129 14.5 11.892 14.8161 12.4546 15.3787C13.0172 15.9413 13.3333 16.7044 13.3333 17.5C12.5377 17.5 11.7746 17.1839 11.212 16.6213C10.6494 16.0587 10.3333 15.2956 10.3333 14.5ZM22.3333 12.5C21.0072 12.5 19.7355 13.0268 18.7978 13.9645C17.8601 14.9021 17.3333 16.1739 17.3333 17.5C17.3333 18.0304 17.544 18.5391 17.9191 18.9142C18.2942 19.2893 18.8029 19.5 19.3333 19.5C19.9899 19.5 20.6401 19.3707 21.2467 19.1194C21.8534 18.8681 22.4046 18.4998 22.8688 18.0355C23.3331 17.5712 23.7014 17.02 23.9527 16.4134C24.204 15.8068 24.3333 15.1566 24.3333 14.5C24.3333 13.9696 24.1226 13.4609 23.7475 13.0858C23.3725 12.7107 22.8637 12.5 22.3333 12.5ZM19.3333 17.5C19.3333 16.7044 19.6494 15.9413 20.212 15.3787C20.7746 14.8161 21.5377 14.5 22.3333 14.5C22.3333 15.2956 22.0172 16.0587 21.4546 16.6213C20.892 17.1839 20.129 17.5 19.3333 17.5ZM19.3333 23.5C19.3333 23.7652 19.228 24.0196 19.0404 24.2071C18.8529 24.3946 18.5985 24.5 18.3333 24.5H14.3333C14.0681 24.5 13.8137 24.3946 13.6262 24.2071C13.4387 24.0196 13.3333 23.7652 13.3333 23.5C13.3333 23.2348 13.4387 22.9804 13.6262 22.7929C13.8137 22.6054 14.0681 22.5 14.3333 22.5H18.3333C18.5985 22.5 18.8529 22.6054 19.0404 22.7929C19.228 22.9804 19.3333 23.2348 19.3333 23.5Z" fill="#00ADB5"/>
</svg>
