<svg width="32" height="33" viewBox="0 0 32 33" fill="none" xmlns="http://www.w3.org/2000/svg">
<path d="M23.1662 14.7762L26.8087 11.3487L26.83 11.3275C27.5802 10.5773 28.0017 9.55973 28.0017 8.49875C28.0017 7.43776 27.5802 6.42023 26.83 5.67C26.0798 4.91977 25.0622 4.49829 24.0012 4.49829C22.9403 4.49829 21.9227 4.91977 21.1725 5.67C21.1725 5.6775 21.1587 5.68375 21.1512 5.69125L17.7237 9.33375L7.34874 5.55875C7.16993 5.49371 6.97627 5.48104 6.7905 5.52222C6.60473 5.5634 6.43457 5.65673 6.29999 5.79125L3.29999 8.79125C3.19545 8.89587 3.11542 9.02238 3.06567 9.16166C3.01591 9.30094 2.99767 9.44952 3.01226 9.5967C3.02684 9.74388 3.0739 9.88598 3.15002 10.0128C3.22615 10.1396 3.32945 10.2479 3.45249 10.33L11.4387 15.6537L9.58624 17.5H6.99999C6.73513 17.5001 6.48113 17.6053 6.29374 17.7925L3.29374 20.7925C3.17675 20.9092 3.0905 21.0531 3.04271 21.2113C2.99492 21.3695 2.98708 21.5371 3.0199 21.699C3.05271 21.861 3.12515 22.0123 3.23075 22.1394C3.33634 22.2666 3.4718 22.3655 3.62499 22.4275L8.22749 24.2687L10.065 28.8625L10.0725 28.8825C10.1361 29.0364 10.237 29.1719 10.3663 29.2769C10.4955 29.3819 10.6489 29.4529 10.8125 29.4836C10.9762 29.5142 11.1449 29.5036 11.3033 29.4525C11.4618 29.4015 11.605 29.3117 11.72 29.1912L14.7037 26.2062C14.7971 26.1138 14.8713 26.0038 14.9222 25.8826C14.973 25.7614 14.9994 25.6314 15 25.5V22.9137L16.845 21.0687L22.1687 29.055C22.2508 29.178 22.3592 29.2813 22.486 29.3575C22.6128 29.4336 22.7549 29.4806 22.902 29.4952C23.0492 29.5098 23.1978 29.4916 23.3371 29.4418C23.4764 29.3921 23.6029 29.312 23.7075 29.2075L26.7075 26.2075C26.842 26.0729 26.9353 25.9028 26.9765 25.717C27.0177 25.5312 27.005 25.3376 26.94 25.1587L23.1662 14.7762ZM23.1575 26.93L17.8337 18.945C17.7521 18.821 17.6439 18.7168 17.517 18.6398C17.3901 18.5628 17.2477 18.5151 17.1 18.5C17.0662 18.5 17.0337 18.5 17.0012 18.5C16.8698 18.5001 16.7396 18.526 16.6182 18.5764C16.4969 18.6268 16.3866 18.7007 16.2937 18.7937L13.2937 21.7937C13.1061 21.9809 13.0004 22.235 13 22.5V25.0862L11.3662 26.72L9.92874 23.125C9.87845 23.0002 9.80348 22.8868 9.70833 22.7917C9.61318 22.6965 9.4998 22.6215 9.37499 22.5712L5.78249 21.1337L7.41499 19.5H9.99999C10.1314 19.5001 10.2614 19.4743 10.3828 19.4241C10.5042 19.3739 10.6146 19.3003 10.7075 19.2075L13.7075 16.2075C13.8123 16.1029 13.8925 15.9763 13.9424 15.8369C13.9923 15.6975 14.0106 15.5487 13.996 15.4014C13.9814 15.254 13.9343 15.1118 13.858 14.9849C13.7817 14.8579 13.6782 14.7495 13.555 14.6675L5.56999 9.3425L7.25749 7.65625L17.66 11.4387C17.8433 11.5061 18.0423 11.5183 18.2324 11.4739C18.4226 11.4295 18.5955 11.3303 18.73 11.1887L22.5975 7.075C22.9745 6.70906 23.4803 6.50614 24.0056 6.51009C24.531 6.51405 25.0337 6.72456 25.4051 7.09613C25.7765 7.46771 25.9868 7.97051 25.9905 8.49586C25.9942 9.02122 25.7911 9.52695 25.425 9.90375L21.3162 13.77C21.1747 13.9045 21.0755 14.0774 21.0311 14.2676C20.9867 14.4577 20.9989 14.6567 21.0662 14.84L24.8487 25.2425L23.1575 26.93Z" fill="white"/>
</svg>
