<svg width="32" height="33" viewBox="0 0 32 33" fill="none" xmlns="http://www.w3.org/2000/svg">
<path d="M22.25 4.31299C19.6688 4.31299 17.4088 5.42299 16 7.29924C14.5912 5.42299 12.3313 4.31299 9.75 4.31299C7.69528 4.3153 5.72539 5.13256 4.27248 6.58547C2.81958 8.03837 2.00232 10.0083 2 12.063C2 20.813 14.9738 27.8955 15.5262 28.188C15.6719 28.2663 15.8346 28.3073 16 28.3073C16.1654 28.3073 16.3281 28.2663 16.4737 28.188C17.0262 27.8955 30 20.813 30 12.063C29.9977 10.0083 29.1804 8.03837 27.7275 6.58547C26.2746 5.13256 24.3047 4.3153 22.25 4.31299ZM16 26.163C13.7175 24.833 4 18.7742 4 12.063C4.00198 10.5386 4.60842 9.07722 5.68633 7.99932C6.76423 6.92141 8.22561 6.31497 9.75 6.31299C12.1812 6.31299 14.2225 7.60799 15.075 9.68799C15.1503 9.8714 15.2785 10.0283 15.4432 10.1387C15.6079 10.2491 15.8017 10.308 16 10.308C16.1983 10.308 16.3921 10.2491 16.5568 10.1387C16.7215 10.0283 16.8497 9.8714 16.925 9.68799C17.7775 7.60424 19.8188 6.31299 22.25 6.31299C23.7744 6.31497 25.2358 6.92141 26.3137 7.99932C27.3916 9.07722 27.998 10.5386 28 12.063C28 18.7642 18.28 24.8317 16 26.163Z" fill="#EEEEEE"/>
</svg>
