<svg width="16" height="17" viewBox="0 0 16 17" fill="none" xmlns="http://www.w3.org/2000/svg">
<path d="M13 6.39861V6.31299C13 4.98691 12.4732 3.71514 11.5355 2.77745C10.5978 1.83977 9.32605 1.31299 7.99997 1.31299C6.67389 1.31299 5.40212 1.83977 4.46444 2.77745C3.52676 3.71514 2.99997 4.98691 2.99997 6.31299V6.39861C2.66625 6.51648 2.38496 6.74855 2.20583 7.0538C2.0267 7.35905 1.96127 7.7178 2.02111 8.06663C2.08096 8.41546 2.26222 8.73189 2.53285 8.95997C2.80348 9.18805 3.14605 9.3131 3.49997 9.31299H3.70997L7.5656 16.063C7.60929 16.1396 7.6725 16.2034 7.74879 16.2477C7.82508 16.292 7.91174 16.3154 7.99997 16.3154C8.0882 16.3154 8.17487 16.292 8.25116 16.2477C8.32745 16.2034 8.39065 16.1396 8.43435 16.063L12.29 9.31299H12.5C12.8539 9.3131 13.1965 9.18805 13.4671 8.95997C13.7377 8.73189 13.919 8.41546 13.9788 8.06663C14.0387 7.7178 13.9732 7.35905 13.7941 7.0538C13.615 6.74855 13.3337 6.51648 13 6.39861ZM7.99997 14.8055L4.86185 9.31299H6.06685L8.60247 13.7505L7.99997 14.8055ZM9.17872 12.743L7.21872 9.31299H8.42435L9.78122 11.688L9.17872 12.743ZM10.3568 10.6805L9.5756 9.31299H11.1381L10.3568 10.6805Z" fill="#00ADB5"/>
</svg>
