<svg width="33" height="33" viewBox="0 0 33 33" fill="none" xmlns="http://www.w3.org/2000/svg">
<path d="M30.6666 26.5001H28.6666V12.5001C28.6666 11.9696 28.4559 11.4609 28.0808 11.0859C27.7058 10.7108 27.1971 10.5001 26.6666 10.5001H18.6666V4.50008C18.6669 4.13791 18.5687 3.78247 18.3828 3.4717C18.1968 3.16094 17.9299 2.90651 17.6106 2.73557C17.2913 2.56463 16.9316 2.4836 16.5698 2.50112C16.2081 2.51865 15.8579 2.63407 15.5566 2.83508L5.55663 9.50008C5.2823 9.6831 5.05749 9.93112 4.90221 10.2221C4.74693 10.513 4.666 10.8378 4.66663 11.1676V26.5001H2.66663C2.40141 26.5001 2.14706 26.6054 1.95952 26.793C1.77198 26.9805 1.66663 27.2349 1.66663 27.5001C1.66663 27.7653 1.77198 28.0197 1.95952 28.2072C2.14706 28.3947 2.40141 28.5001 2.66663 28.5001H30.6666C30.9318 28.5001 31.1862 28.3947 31.3737 28.2072C31.5613 28.0197 31.6666 27.7653 31.6666 27.5001C31.6666 27.2349 31.5613 26.9805 31.3737 26.793C31.1862 26.6054 30.9318 26.5001 30.6666 26.5001ZM26.6666 12.5001V26.5001H18.6666V12.5001H26.6666ZM6.66663 11.1676L16.6666 4.50008V26.5001H6.66663V11.1676ZM14.6666 14.5001V16.5001C14.6666 16.7653 14.5613 17.0197 14.3737 17.2072C14.1862 17.3947 13.9318 17.5001 13.6666 17.5001C13.4014 17.5001 13.1471 17.3947 12.9595 17.2072C12.772 17.0197 12.6666 16.7653 12.6666 16.5001V14.5001C12.6666 14.2349 12.772 13.9805 12.9595 13.793C13.1471 13.6054 13.4014 13.5001 13.6666 13.5001C13.9318 13.5001 14.1862 13.6054 14.3737 13.793C14.5613 13.9805 14.6666 14.2349 14.6666 14.5001ZM10.6666 14.5001V16.5001C10.6666 16.7653 10.5613 17.0197 10.3737 17.2072C10.1862 17.3947 9.93184 17.5001 9.66663 17.5001C9.40141 17.5001 9.14706 17.3947 8.95952 17.2072C8.77198 17.0197 8.66663 16.7653 8.66663 16.5001V14.5001C8.66663 14.2349 8.77198 13.9805 8.95952 13.793C9.14706 13.6054 9.40141 13.5001 9.66663 13.5001C9.93184 13.5001 10.1862 13.6054 10.3737 13.793C10.5613 13.9805 10.6666 14.2349 10.6666 14.5001ZM10.6666 21.5001V23.5001C10.6666 23.7653 10.5613 24.0197 10.3737 24.2072C10.1862 24.3947 9.93184 24.5001 9.66663 24.5001C9.40141 24.5001 9.14706 24.3947 8.95952 24.2072C8.77198 24.0197 8.66663 23.7653 8.66663 23.5001V21.5001C8.66663 21.2349 8.77198 20.9805 8.95952 20.793C9.14706 20.6054 9.40141 20.5001 9.66663 20.5001C9.93184 20.5001 10.1862 20.6054 10.3737 20.793C10.5613 20.9805 10.6666 21.2349 10.6666 21.5001ZM14.6666 21.5001V23.5001C14.6666 23.7653 14.5613 24.0197 14.3737 24.2072C14.1862 24.3947 13.9318 24.5001 13.6666 24.5001C13.4014 24.5001 13.1471 24.3947 12.9595 24.2072C12.772 24.0197 12.6666 23.7653 12.6666 23.5001V21.5001C12.6666 21.2349 12.772 20.9805 12.9595 20.793C13.1471 20.6054 13.4014 20.5001 13.6666 20.5001C13.9318 20.5001 14.1862 20.6054 14.3737 20.793C14.5613 20.9805 14.6666 21.2349 14.6666 21.5001Z" fill="white"/>
</svg>
